<mxfile host="app.diagrams.net" modified="2023-02-27T08:53:41.510Z" agent="5.0 (Windows NT 10.0; Win64; x64) AppleWebKit/537.36 (KHTML, like Gecko) Chrome/110.0.0.0 Safari/537.36" etag="qqZMKcgkYgIfSkQKI4L3" version="20.8.23" type="github">
  <diagram name="Page-1" id="khNjEgueq9Hnr0_aDzN0">
    <mxGraphModel dx="972" dy="510" grid="1" gridSize="10" guides="1" tooltips="1" connect="1" arrows="1" fold="1" page="1" pageScale="1" pageWidth="850" pageHeight="1100" math="0" shadow="0">
      <root>
        <mxCell id="0" />
        <mxCell id="1" parent="0" />
        <mxCell id="wbTJqozSOBXZTNc4BJRr-1" value="Feature Engineering" style="rounded=0;whiteSpace=wrap;html=1;" vertex="1" parent="1">
          <mxGeometry x="320" y="20" width="120" height="60" as="geometry" />
        </mxCell>
      </root>
    </mxGraphModel>
  </diagram>
</mxfile>
